# xmcd
#
# Track frame offsets:
#	150
#	18161
#	36190
#	52578
#	70937
#	85467
#	108011
#	124480
#	142502
#	159732
#	178454
#	199836
#
# Disc length: 2999 seconds
#
# Revision: 0
# Processed by: cddbd v1.5.2PL0 Copyright (c) Steve Scherf et al.
# Submitted via: EasyCDDAExtractor 16.0.9.1
#
DISCID=9d0bb50c
DTITLE=שלמה ארצי - אוסף השירים שהסתתרו
DYEAR=2016
DGENRE=
TTITLE0=איסלנד
TTITLE1=פה ושם
TTITLE2=מגע אנושי
TTITLE3=תקווה קטנטנה
TTITLE4=יום אחד
TTITLE5=גם זה לטובה
TTITLE6=הבית שלך
TTITLE7=איזו התחלה
TTITLE8=אור בקצה המנהרה
TTITLE9=עשרים וארבע שעות
TTITLE10=בית חרושת קופי
TTITLE11=אתמול חלפו הציפורים
EXTD=
EXTT0=
EXTT1=
EXTT2=
EXTT3=
EXTT4=
EXTT5=
EXTT6=
EXTT7=
EXTT8=
EXTT9=
EXTT10=
EXTT11=
PLAYORDER=
